<svg xmlns="http://www.w3.org/2000/svg" viewBox="0 0 476 415.2">
  <path fill="none" stroke="#facc15" stroke-width="27.59" stroke-linecap="round" stroke-linejoin="round" d="M108.18 186.94L155.24 186.94L169.85 84.6L296.42 74.86L307.78 186.94L367.82 186.94"/>
  <path fill="#e2e8f0" d="M74.85 310.7C70.14 310.7 66.04 309.82 62.54 308.06C59.04 306.29 56.34 303.73 54.44 300.37C52.54 297.01 51.58 293.08 51.58 288.58L51.58 254.94C51.58 250.37 52.54 246.42 54.44 243.1C56.34 239.77 59.04 237.23 62.54 235.46C66.04 233.7 70.14 232.81 74.85 232.81C79.55 232.81 83.64 233.71 87.1 235.52C90.56 237.32 93.25 239.86 95.15 243.15C97.05 246.44 98.01 250.37 98.01 254.94L86.79 254.94C86.79 250.99 85.75 247.98 83.67 245.9C81.6 243.82 78.65 242.78 74.85 242.78C71.04 242.78 68.08 243.82 65.97 245.9C63.86 247.98 62.8 250.95 62.8 254.83L62.8 288.58C62.8 292.46 63.86 295.46 65.97 297.57C68.08 299.68 71.04 300.73 74.85 300.73C78.65 300.73 81.6 299.68 83.67 297.57C85.75 295.46 86.79 292.46 86.79 288.58L98.01 288.58C98.01 293.08 97.05 297 95.15 300.32C93.25 303.64 90.56 306.2 87.1 308C83.64 309.8 79.55 310.7 74.85 310.7Z"/>
  <path fill="#e2e8f0" d="M129.53 309.67L148.84 233.85L163.59 233.85L182.91 309.67L171.59 309.67L167.02 290.45L145.52 290.45L140.95 309.67ZM147.6 281.21L164.84 281.21L159.64 259.3C158.74 255.42 158 252.05 157.41 249.17C156.82 246.3 156.42 244.34 156.22 243.3C156.01 244.34 155.63 246.3 155.07 249.17C154.52 252.05 153.76 255.39 152.79 259.19Z"/>
  <path fill="#e2e8f0" d="M215.57 309.67L215.57 233.85L240.39 233.85C245.3 233.85 249.58 234.79 253.21 236.66C256.85 238.53 259.65 241.18 261.63 244.6C263.6 248.03 264.59 252.06 264.59 256.7C264.59 261.27 263.58 265.29 261.57 268.75C259.57 272.21 256.76 274.88 253.16 276.74C249.56 278.61 245.3 279.55 240.39 279.55L226.78 279.55L226.78 309.67ZM226.78 269.48L240.39 269.48C244.27 269.48 247.36 268.32 249.68 266C252 263.68 253.16 260.58 253.16 256.7C253.16 252.75 252 249.64 249.68 247.35C247.36 245.07 244.27 243.93 240.39 243.93L226.78 243.93Z"/>
  <path fill="#e2e8f0" d="M297.04 309.67L297.04 233.85L311.16 233.85L333.29 296.89C333.15 294.88 332.97 292.5 332.77 289.73C332.56 286.96 332.4 284.08 332.3 281.11C332.19 278.13 332.14 275.43 332.14 273.01L332.14 233.85L342.53 233.85L342.53 309.67L328.4 309.67L306.39 246.63C306.53 248.43 306.68 250.68 306.85 253.38C307.03 256.08 307.17 258.88 307.27 261.79C307.37 264.7 307.43 267.4 307.43 269.89L307.43 309.67Z"/>
  <path fill="#e2e8f0" d="M401.57 310.7C396.86 310.7 392.79 309.82 389.37 308.06C385.94 306.29 383.31 303.73 381.47 300.37C379.64 297.01 378.72 293.08 378.72 288.58L378.72 254.94C378.72 250.37 379.64 246.42 381.47 243.1C383.31 239.77 385.94 237.23 389.37 235.46C392.79 233.7 396.86 232.81 401.57 232.81C406.28 232.81 410.34 233.7 413.77 235.46C417.2 237.23 419.83 239.77 421.66 243.1C423.5 246.42 424.42 250.33 424.42 254.83L424.42 288.58C424.42 293.08 423.5 297.01 421.66 300.37C419.83 303.73 417.2 306.29 413.77 308.06C410.34 309.82 406.28 310.7 401.57 310.7ZM401.57 300.73C405.38 300.73 408.27 299.68 410.24 297.57C412.21 295.46 413.2 292.46 413.2 288.58L413.2 254.94C413.2 250.99 412.21 247.98 410.24 245.9C408.27 243.82 405.38 242.78 401.57 242.78C397.83 242.78 394.96 243.82 392.95 245.9C390.94 247.98 389.94 250.99 389.94 254.94L389.94 288.58C389.94 292.46 390.94 295.46 392.95 297.57C394.96 299.68 397.83 300.73 401.57 300.73Z"/>
  <path fill="#64748b" d="M119.1 372.74C117.5 372.74 116.12 372.47 114.98 371.94C113.83 371.41 112.94 370.65 112.32 369.67C111.69 368.68 111.37 367.51 111.37 366.15L114.85 366.15C114.85 367.23 115.23 368.08 115.98 368.69C116.74 369.31 117.79 369.62 119.13 369.62C120.39 369.62 121.37 369.32 122.08 368.71C122.8 368.11 123.16 367.27 123.16 366.21C123.16 365.33 122.91 364.56 122.43 363.91C121.94 363.26 121.24 362.82 120.33 362.58L117.35 361.7C115.62 361.2 114.28 360.35 113.34 359.15C112.4 357.95 111.93 356.52 111.93 354.85C111.93 353.56 112.22 352.42 112.8 351.45C113.39 350.47 114.22 349.71 115.3 349.17C116.38 348.63 117.66 348.36 119.13 348.36C121.29 348.36 123.03 348.95 124.34 350.11C125.65 351.28 126.31 352.85 126.34 354.82L122.83 354.82C122.83 353.78 122.5 352.97 121.84 352.37C121.18 351.78 120.26 351.48 119.07 351.48C117.92 351.48 117.02 351.75 116.37 352.31C115.72 352.86 115.4 353.63 115.4 354.63C115.4 355.51 115.64 356.28 116.13 356.93C116.62 357.58 117.31 358.03 118.22 358.29L121.24 359.2C122.97 359.68 124.3 360.52 125.23 361.73C126.16 362.95 126.63 364.39 126.63 366.08C126.63 367.4 126.31 368.57 125.69 369.57C125.06 370.58 124.18 371.36 123.06 371.91C121.93 372.46 120.61 372.74 119.1 372.74Z"/>
  <path fill="#64748b" d="M164.85 372.41L164.85 351.93L158.52 351.93L158.52 348.69L174.68 348.69L174.68 351.93L168.35 351.93L168.35 372.41Z"/>
  <path fill="#64748b" d="M214.2 372.74C211.93 372.74 210.18 372.11 208.94 370.87C207.71 369.63 207.09 367.93 207.09 365.79L207.09 348.72L210.6 348.72L210.6 365.79C210.6 366.98 210.9 367.92 211.49 368.61C212.09 369.31 212.99 369.65 214.2 369.65C215.39 369.65 216.29 369.31 216.89 368.61C217.5 367.92 217.8 366.98 217.8 365.79L217.8 348.72L221.31 348.72L221.31 365.79C221.31 367.93 220.69 369.63 219.46 370.87C218.22 372.11 216.47 372.74 214.2 372.74Z"/>
  <path fill="#64748b" d="M254.76 372.41L254.76 348.72L261.38 348.72C262.94 348.72 264.29 349.02 265.43 349.61C266.58 350.21 267.47 351.05 268.11 352.13C268.75 353.21 269.07 354.49 269.07 355.96L269.07 365.14C269.07 366.59 268.75 367.87 268.11 368.97C267.47 370.07 266.58 370.92 265.43 371.52C264.29 372.11 262.94 372.41 261.38 372.41ZM258.26 369.23L261.38 369.23C262.68 369.23 263.7 368.87 264.44 368.14C265.19 367.42 265.56 366.42 265.56 365.14L265.56 355.96C265.56 354.7 265.19 353.71 264.44 352.99C263.7 352.26 262.68 351.9 261.38 351.9L258.26 351.9Z"/>
  <path fill="#64748b" d="M302.84 372.41L302.84 369.3L307.61 369.3L307.61 351.83L302.84 351.83L302.84 348.72L315.95 348.72L315.95 351.83L311.18 351.83L311.18 369.3L315.95 369.3L315.95 372.41Z"/>
  <path fill="#64748b" d="M357 372.74C355.53 372.74 354.26 372.46 353.19 371.91C352.11 371.36 351.29 370.56 350.72 369.51C350.15 368.46 349.86 367.23 349.86 365.82L349.86 355.31C349.86 353.88 350.15 352.65 350.72 351.61C351.29 350.57 352.11 349.77 353.19 349.22C354.26 348.67 355.53 348.39 357 348.39C358.47 348.39 359.74 348.67 360.81 349.22C361.88 349.77 362.7 350.57 363.28 351.61C363.85 352.65 364.14 353.87 364.14 355.28L364.14 365.82C364.14 367.23 363.85 368.46 363.28 369.51C362.7 370.56 361.88 371.36 360.81 371.91C359.74 372.46 358.47 372.74 357 372.74ZM357 369.62C358.19 369.62 359.09 369.29 359.71 368.63C360.32 367.97 360.63 367.03 360.63 365.82L360.63 355.31C360.63 354.07 360.32 353.13 359.71 352.48C359.09 351.83 358.19 351.51 357 351.51C355.83 351.51 354.93 351.83 354.3 352.48C353.68 353.13 353.36 354.07 353.36 355.31L353.36 365.82C353.36 367.03 353.68 367.97 354.3 368.63C354.93 369.29 355.83 369.62 357 369.62Z"/>
</svg>
