<svg xmlns="http://www.w3.org/2000/svg" viewBox="0 0 476 122.4">
  <path fill="none" stroke="#0f172a" stroke-width="16.67" stroke-linecap="round" stroke-linejoin="round" d="M18.99 105.71L47.45 105.71L56.23 43.96L132.69 38.11L139.56 105.71L175.86 105.71"/>
  <path fill="#0f172a" d="M230.83 95.62C227.82 95.62 225.2 95.06 222.96 93.93C220.73 92.8 219 91.16 217.78 89.01C216.57 86.87 215.96 84.35 215.96 81.47L215.96 59.96C215.96 57.03 216.57 54.51 217.78 52.38C219 50.26 220.73 48.63 222.96 47.5C225.2 46.37 227.82 45.81 230.83 45.81C233.84 45.81 236.46 46.39 238.67 47.54C240.88 48.69 242.6 50.32 243.82 52.42C245.04 54.52 245.64 57.03 245.64 59.96L238.47 59.96C238.47 57.43 237.81 55.51 236.48 54.18C235.15 52.85 233.27 52.19 230.83 52.19C228.4 52.19 226.51 52.85 225.16 54.18C223.8 55.51 223.13 57.41 223.13 59.89L223.13 81.47C223.13 83.95 223.8 85.87 225.16 87.22C226.51 88.57 228.4 89.24 230.83 89.24C233.27 89.24 235.15 88.57 236.48 87.22C237.81 85.87 238.47 83.95 238.47 81.47L245.64 81.47C245.64 84.35 245.04 86.85 243.82 88.98C242.6 91.1 240.88 92.74 238.67 93.89C236.46 95.04 233.84 95.62 230.83 95.62Z"/>
  <path fill="#0f172a" d="M265.21 94.96L277.56 46.47L286.99 46.47L299.34 94.96L292.11 94.96L289.18 82.67L275.44 82.67L272.51 94.96ZM276.76 76.76L287.79 76.76L284.47 62.75C283.89 60.27 283.42 58.11 283.04 56.27C282.66 54.43 282.41 53.18 282.28 52.52C282.14 53.18 281.9 54.43 281.55 56.27C281.19 58.11 280.7 60.24 280.08 62.68Z"/>
  <path fill="#0f172a" d="M319.64 94.96L319.64 46.47L335.51 46.47C338.66 46.47 341.39 47.07 343.71 48.27C346.04 49.46 347.83 51.16 349.09 53.35C350.36 55.54 350.99 58.12 350.99 61.09C350.99 64.01 350.34 66.58 349.06 68.79C347.78 71 345.98 72.71 343.68 73.9C341.38 75.1 338.66 75.7 335.51 75.7L326.81 75.7L326.81 94.96ZM326.81 69.25L335.51 69.25C337.99 69.25 339.97 68.51 341.46 67.03C342.94 65.55 343.68 63.56 343.68 61.09C343.68 58.56 342.94 56.57 341.46 55.11C339.97 53.65 337.99 52.92 335.51 52.92L326.81 52.92Z"/>
  <path fill="#0f172a" d="M371.15 94.96L371.15 46.47L380.18 46.47L394.33 86.79C394.24 85.5 394.13 83.98 393.99 82.21C393.86 80.43 393.76 78.6 393.7 76.69C393.63 74.79 393.6 73.06 393.6 71.51L393.6 46.47L400.24 46.47L400.24 94.96L391.2 94.96L377.13 54.64C377.21 55.79 377.31 57.23 377.42 58.96C377.53 60.69 377.62 62.48 377.69 64.34C377.76 66.2 377.79 67.93 377.79 69.52L377.79 94.96Z"/>
  <path fill="#0f172a" d="M437.4 95.62C434.39 95.62 431.79 95.06 429.6 93.93C427.41 92.8 425.72 91.16 424.55 89.01C423.38 86.87 422.79 84.35 422.79 81.47L422.79 59.96C422.79 57.03 423.38 54.51 424.55 52.38C425.72 50.26 427.41 48.63 429.6 47.5C431.79 46.37 434.39 45.81 437.4 45.81C440.41 45.81 443.01 46.37 445.2 47.5C447.4 48.63 449.08 50.26 450.25 52.38C451.43 54.51 452.01 57.01 452.01 59.89L452.01 81.47C452.01 84.35 451.43 86.87 450.25 89.01C449.08 91.16 447.4 92.8 445.2 93.93C443.01 95.06 440.41 95.62 437.4 95.62ZM437.4 89.24C439.84 89.24 441.68 88.57 442.95 87.22C444.21 85.87 444.84 83.95 444.84 81.47L444.84 59.96C444.84 57.43 444.21 55.51 442.95 54.18C441.68 52.85 439.84 52.19 437.4 52.19C435.01 52.19 433.17 52.85 431.89 54.18C430.6 55.51 429.96 57.43 429.96 59.96L429.96 81.47C429.96 83.95 430.6 85.87 431.89 87.22C433.17 88.57 435.01 89.24 437.4 89.24Z"/>
</svg>
